<?xml version="1.0" encoding="UTF-8" standalone="no"?>
<!DOCTYPE svg PUBLIC "-//W3C//DTD SVG 1.1//EN"
 "http://www.w3.org/Graphics/SVG/1.1/DTD/svg11.dtd">
<!-- Generated by graphviz version 2.38.0 (20140413.2041)
 -->
<!-- Title: G Pages: 1 -->
<svg width="332pt" height="464pt"
 viewBox="0.00 0.00 332.45 464.00" xmlns="http://www.w3.org/2000/svg" xmlns:xlink="http://www.w3.org/1999/xlink">
<g id="graph0" class="graph" transform="scale(1 1) rotate(0) translate(4 460)">
<title>G</title>
<polygon fill="white" stroke="none" points="-4,4 -4,-460 328.446,-460 328.446,4 -4,4"/>
<g id="clust1" class="cluster"><title>cluster_Global</title>
<path fill="none" stroke="gray" d="M20,-8C20,-8 304.446,-8 304.446,-8 310.446,-8 316.446,-14 316.446,-20 316.446,-20 316.446,-436 316.446,-436 316.446,-442 310.446,-448 304.446,-448 304.446,-448 20,-448 20,-448 14,-448 8,-442 8,-436 8,-436 8,-20 8,-20 8,-14 14,-8 20,-8"/>
<text text-anchor="middle" x="162.223" y="-435.2" font-family="Times New Roman,serif" font-size="11.00" fill="gray">Global</text>
</g>
<g id="clust2" class="cluster"><title>cluster_\LeoCor</title>
<path fill="none" stroke="gray" d="M28,-16C28,-16 296.446,-16 296.446,-16 302.446,-16 308.446,-22 308.446,-28 308.446,-28 308.446,-364 308.446,-364 308.446,-370 302.446,-376 296.446,-376 296.446,-376 28,-376 28,-376 22,-376 16,-370 16,-364 16,-364 16,-28 16,-28 16,-22 22,-16 28,-16"/>
<text text-anchor="middle" x="162.223" y="-363.2" font-family="Times New Roman,serif" font-size="11.00" fill="gray">LeoCor</text>
</g>
<g id="clust3" class="cluster"><title>cluster_\LeoCor\Data</title>
<path fill="none" stroke="gray" d="M36,-24C36,-24 287.446,-24 287.446,-24 293.446,-24 299.446,-30 299.446,-36 299.446,-36 299.446,-220 299.446,-220 299.446,-226 293.446,-232 287.446,-232 287.446,-232 36,-232 36,-232 30,-232 24,-226 24,-220 24,-220 24,-36 24,-36 24,-30 30,-24 36,-24"/>
<text text-anchor="middle" x="161.723" y="-219.2" font-family="Times New Roman,serif" font-size="11.00" fill="gray">Data</text>
</g>
<g id="clust4" class="cluster"><title>cluster_\LeoCor\Data\Input</title>
<path fill="none" stroke="gray" d="M214.446,-132C214.446,-132 270.446,-132 270.446,-132 276.446,-132 282.446,-138 282.446,-144 282.446,-144 282.446,-192 282.446,-192 282.446,-198 276.446,-204 270.446,-204 270.446,-204 214.446,-204 214.446,-204 208.446,-204 202.446,-198 202.446,-192 202.446,-192 202.446,-144 202.446,-144 202.446,-138 208.446,-132 214.446,-132"/>
<text text-anchor="middle" x="242.446" y="-191.2" font-family="Times New Roman,serif" font-size="11.00" fill="gray">Input</text>
</g>
<g id="clust5" class="cluster"><title>cluster_\LeoCor\Exception</title>
<path fill="none" stroke="gray" d="M196.446,-240C196.446,-240 288.446,-240 288.446,-240 294.446,-240 300.446,-246 300.446,-252 300.446,-252 300.446,-336 300.446,-336 300.446,-342 294.446,-348 288.446,-348 288.446,-348 196.446,-348 196.446,-348 190.446,-348 184.446,-342 184.446,-336 184.446,-336 184.446,-252 184.446,-252 184.446,-246 190.446,-240 196.446,-240"/>
<text text-anchor="middle" x="242.446" y="-335.2" font-family="Times New Roman,serif" font-size="11.00" fill="gray">Exception</text>
</g>
<g id="clust6" class="cluster"><title>cluster_\LeoCor\Exception\Data</title>
<path fill="none" stroke="gray" d="M204.446,-248C204.446,-248 280.446,-248 280.446,-248 286.446,-248 292.446,-254 292.446,-260 292.446,-260 292.446,-308 292.446,-308 292.446,-314 286.446,-320 280.446,-320 280.446,-320 204.446,-320 204.446,-320 198.446,-320 192.446,-314 192.446,-308 192.446,-308 192.446,-260 192.446,-260 192.446,-254 198.446,-248 204.446,-248"/>
<text text-anchor="middle" x="242.446" y="-307.2" font-family="Times New Roman,serif" font-size="11.00" fill="gray">Data</text>
</g>
<!-- \\LeoCor\\Data\\Input\\Globals -->
<g id="node1" class="node"><title>\\LeoCor\\Data\\Input\\Globals</title>
<polygon fill="none" stroke="black" points="274.446,-176 210.446,-176 210.446,-140 274.446,-140 274.446,-176"/>
<text text-anchor="middle" x="242.446" y="-155.2" font-family="Courier,monospace" font-size="11.00">Globals</text>
</g>
<!-- \\LeoCor\\Data\\StringFilter -->
<g id="node2" class="node"><title>\\LeoCor\\Data\\StringFilter</title>
<polygon fill="none" stroke="black" points="291.446,-122 193.446,-122 193.446,-86 291.446,-86 291.446,-122"/>
<text text-anchor="middle" x="242.446" y="-101.2" font-family="Courier,monospace" font-size="11.00">StringFilter</text>
</g>
<!-- \\LeoCor\\Data\\Filter -->
<g id="node4" class="node"><title>\\LeoCor\\Data\\Filter</title>
<polygon fill="none" stroke="black" points="116,-122 32,-122 32,-86 116,-86 116,-122"/>
<text text-anchor="start" x="40" y="-107.2" font-family="Courier,monospace" font-size="11.00">«abstract»</text>
<text text-anchor="start" x="53.5" y="-95.2" font-family="Courier,monospace" font-size="11.00">Filter</text>
</g>
<!-- \\LeoCor\\Data\\StringFilter&#45;&gt;\\LeoCor\\Data\\Filter -->
<g id="edge1" class="edge"><title>\\LeoCor\\Data\\StringFilter&#45;&gt;\\LeoCor\\Data\\Filter</title>
<path fill="none" stroke="black" d="M193.303,-104C172.345,-104 147.755,-104 126.439,-104"/>
<polygon fill="none" stroke="black" points="126.268,-100.5 116.268,-104 126.267,-107.5 126.268,-100.5"/>
</g>
<!-- \\LeoCor\\Data\\DataUnit -->
<g id="node3" class="node"><title>\\LeoCor\\Data\\DataUnit</title>
<polygon fill="none" stroke="black" points="277.946,-68 206.946,-68 206.946,-32 277.946,-32 277.946,-68"/>
<text text-anchor="middle" x="242.446" y="-47.2" font-family="Courier,monospace" font-size="11.00">DataUnit</text>
</g>
<!-- \\LeoCor\\Exception\\Data\\NotAString -->
<g id="node5" class="node"><title>\\LeoCor\\Exception\\Data\\NotAString</title>
<polygon fill="none" stroke="black" points="284.446,-292 200.446,-292 200.446,-256 284.446,-256 284.446,-292"/>
<text text-anchor="middle" x="242.446" y="-271.2" font-family="Courier,monospace" font-size="11.00">NotAString</text>
</g>
<!-- Exception -->
<g id="node6" class="node"><title>Exception</title>
<ellipse fill="none" stroke="black" cx="74" cy="-402" rx="47.3916" ry="18"/>
<text text-anchor="middle" x="74" y="-398.3" font-family="Times New Roman,serif" font-size="14.00" fill="gray">Exception</text>
</g>
<!-- \\LeoCor\\Exception\\Data\\NotAString&#45;&gt;Exception -->
<g id="edge2" class="edge"><title>\\LeoCor\\Exception\\Data\\NotAString&#45;&gt;Exception</title>
<path fill="none" stroke="black" d="M217.951,-292.068C188.091,-315.031 136.548,-354.669 104.193,-379.55"/>
<polygon fill="none" stroke="black" points="101.802,-376.973 96.0087,-385.844 106.069,-382.522 101.802,-376.973"/>
</g>
</g>
</svg>
