<?xml version="1.0" encoding="UTF-8" standalone="no"?>
<!DOCTYPE svg PUBLIC "-//W3C//DTD SVG 1.1//EN"
 "http://www.w3.org/Graphics/SVG/1.1/DTD/svg11.dtd">
<!-- Generated by graphviz version 2.38.0 (20140413.2041)
 -->
<!-- Title: G Pages: 1 -->
<svg width="326pt" height="304pt"
 viewBox="0.00 0.00 326.00 304.00" xmlns="http://www.w3.org/2000/svg" xmlns:xlink="http://www.w3.org/1999/xlink">
<g id="graph0" class="graph" transform="scale(1 1) rotate(0) translate(4 300)">
<title>G</title>
<polygon fill="white" stroke="none" points="-4,4 -4,-300 322,-300 322,4 -4,4"/>
<g id="clust1" class="cluster"><title>cluster_Global</title>
<path fill="none" stroke="gray" d="M20,-8C20,-8 298,-8 298,-8 304,-8 310,-14 310,-20 310,-20 310,-276 310,-276 310,-282 304,-288 298,-288 298,-288 20,-288 20,-288 14,-288 8,-282 8,-276 8,-276 8,-20 8,-20 8,-14 14,-8 20,-8"/>
<text text-anchor="middle" x="159" y="-275.2" font-family="Times New Roman,serif" font-size="11.00" fill="gray">Global</text>
</g>
<g id="clust2" class="cluster"><title>cluster_\LeoCor</title>
<path fill="none" stroke="gray" d="M28,-16C28,-16 290,-16 290,-16 296,-16 302,-22 302,-28 302,-28 302,-248 302,-248 302,-254 296,-260 290,-260 290,-260 28,-260 28,-260 22,-260 16,-254 16,-248 16,-248 16,-28 16,-28 16,-22 22,-16 28,-16"/>
<text text-anchor="middle" x="159" y="-247.2" font-family="Times New Roman,serif" font-size="11.00" fill="gray">LeoCor</text>
</g>
<g id="clust3" class="cluster"><title>cluster_\LeoCor\Data</title>
<path fill="none" stroke="gray" d="M36,-24C36,-24 282,-24 282,-24 288,-24 294,-30 294,-36 294,-36 294,-220 294,-220 294,-226 288,-232 282,-232 282,-232 36,-232 36,-232 30,-232 24,-226 24,-220 24,-220 24,-36 24,-36 24,-30 30,-24 36,-24"/>
<text text-anchor="middle" x="159" y="-219.2" font-family="Times New Roman,serif" font-size="11.00" fill="gray">Data</text>
</g>
<g id="clust4" class="cluster"><title>cluster_\LeoCor\Data\Input</title>
<path fill="none" stroke="gray" d="M209,-132C209,-132 265,-132 265,-132 271,-132 277,-138 277,-144 277,-144 277,-192 277,-192 277,-198 271,-204 265,-204 265,-204 209,-204 209,-204 203,-204 197,-198 197,-192 197,-192 197,-144 197,-144 197,-138 203,-132 209,-132"/>
<text text-anchor="middle" x="237" y="-191.2" font-family="Times New Roman,serif" font-size="11.00" fill="gray">Input</text>
</g>
<!-- \\LeoCor\\Data\\Input\\Globals -->
<g id="node1" class="node"><title>\\LeoCor\\Data\\Input\\Globals</title>
<polygon fill="none" stroke="black" points="269,-176 205,-176 205,-140 269,-140 269,-176"/>
<text text-anchor="middle" x="237" y="-155.2" font-family="Courier,monospace" font-size="11.00">Globals</text>
</g>
<!-- \\LeoCor\\Data\\DataUnit -->
<g id="node2" class="node"><title>\\LeoCor\\Data\\DataUnit</title>
<polygon fill="none" stroke="black" points="272.5,-122 201.5,-122 201.5,-86 272.5,-86 272.5,-122"/>
<text text-anchor="middle" x="237" y="-101.2" font-family="Courier,monospace" font-size="11.00">DataUnit</text>
</g>
<!-- \\LeoCor\\Data\\Filter -->
<g id="node3" class="node"><title>\\LeoCor\\Data\\Filter</title>
<polygon fill="none" stroke="black" points="116,-68 32,-68 32,-32 116,-32 116,-68"/>
<text text-anchor="start" x="40" y="-53.2" font-family="Courier,monospace" font-size="11.00">«abstract»</text>
<text text-anchor="start" x="53.5" y="-41.2" font-family="Courier,monospace" font-size="11.00">Filter</text>
</g>
<!-- \\LeoCor\\Data\\StringFilter -->
<g id="node4" class="node"><title>\\LeoCor\\Data\\StringFilter</title>
<polygon fill="none" stroke="black" points="286,-68 188,-68 188,-32 286,-32 286,-68"/>
<text text-anchor="middle" x="237" y="-47.2" font-family="Courier,monospace" font-size="11.00">StringFilter</text>
</g>
<!-- \\LeoCor\\Data\\StringFilter&#45;&gt;\\LeoCor\\Data\\Filter -->
<g id="edge1" class="edge"><title>\\LeoCor\\Data\\StringFilter&#45;&gt;\\LeoCor\\Data\\Filter</title>
<path fill="none" stroke="black" d="M187.695,-50C168.291,-50 145.9,-50 126.215,-50"/>
<polygon fill="none" stroke="black" points="126.197,-46.5001 116.197,-50 126.197,-53.5001 126.197,-46.5001"/>
</g>
</g>
</svg>
